<svg width="20" height="20" viewBox="0 0 20 20" fill="none" xmlns="http://www.w3.org/2000/svg">
<path d="M9.16667 18.1088C9.42003 18.2551 9.70744 18.3321 10 18.3321C10.2926 18.3321 10.58 18.2551 10.8333 18.1088L16.6667 14.7755C16.9198 14.6294 17.13 14.4192 17.2763 14.1662C17.4225 13.9132 17.4997 13.6261 17.5 13.3338V6.66718C17.4997 6.3749 17.4225 6.08785 17.2763 5.83481C17.13 5.58177 16.9198 5.37164 16.6667 5.22551L10.8333 1.89218C10.58 1.74589 10.2926 1.66888 10 1.66888C9.70744 1.66888 9.42003 1.74589 9.16667 1.89218L3.33333 5.22551C3.08022 5.37164 2.86998 5.58177 2.72372 5.83481C2.57745 6.08785 2.5003 6.3749 2.5 6.66718V13.3338C2.5003 13.6261 2.57745 13.9132 2.72372 14.1662C2.86998 14.4192 3.08022 14.6294 3.33333 14.7755L9.16667 18.1088Z" stroke="black" stroke-width="1.39607" stroke-linecap="round" stroke-linejoin="round"/>
<path d="M10 18.3337V10.0004" stroke="black" stroke-width="1.39607" stroke-linecap="round" stroke-linejoin="round"/>
<path d="M2.74219 5.83398L10.0005 10.0007L17.2589 5.83398" stroke="black" stroke-width="1.39607" stroke-linecap="round" stroke-linejoin="round"/>
<path d="M6.25 3.55823L13.75 7.84989" stroke="black" stroke-width="1.39607" stroke-linecap="round" stroke-linejoin="round"/>
</svg>
