<svg width="420" height="160" viewBox="0 0 420 160" fill="none" xmlns="http://www.w3.org/2000/svg">
  <rect x="36" y="34" width="348" height="92" rx="14" fill="#1F2937"/>
  <rect x="54" y="52" width="22" height="14" rx="3" fill="#374151"/>
  <rect x="82" y="52" width="22" height="14" rx="3" fill="#374151"/>
  <rect x="110" y="52" width="22" height="14" rx="3" fill="#374151"/>
  <rect x="138" y="52" width="22" height="14" rx="3" fill="#374151"/>
  <rect x="166" y="52" width="22" height="14" rx="3" fill="#374151"/>
  <rect x="194" y="52" width="22" height="14" rx="3" fill="#374151"/>
  <rect x="222" y="52" width="22" height="14" rx="3" fill="#374151"/>
  <rect x="250" y="52" width="22" height="14" rx="3" fill="#374151"/>
  <rect x="278" y="52" width="22" height="14" rx="3" fill="#374151"/>
  <rect x="306" y="52" width="22" height="14" rx="3" fill="#374151"/>
  <rect x="334" y="52" width="32" height="14" rx="3" fill="#374151"/>
  <rect x="54" y="72" width="30" height="14" rx="3" fill="#4B5563"/>
  <rect x="90" y="72" width="22" height="14" rx="3" fill="#4B5563"/>
  <rect x="118" y="72" width="22" height="14" rx="3" fill="#4B5563"/>
  <rect x="146" y="72" width="22" height="14" rx="3" fill="#4B5563"/>
  <rect x="174" y="72" width="22" height="14" rx="3" fill="#4B5563"/>
  <rect x="202" y="72" width="22" height="14" rx="3" fill="#4B5563"/>
  <rect x="230" y="72" width="22" height="14" rx="3" fill="#4B5563"/>
  <rect x="258" y="72" width="22" height="14" rx="3" fill="#4B5563"/>
  <rect x="286" y="72" width="22" height="14" rx="3" fill="#4B5563"/>
  <rect x="314" y="72" width="52" height="14" rx="3" fill="#4B5563"/>
  <rect x="54" y="92" width="42" height="14" rx="3" fill="#6B7280"/>
  <rect x="102" y="92" width="22" height="14" rx="3" fill="#6B7280"/>
  <rect x="130" y="92" width="22" height="14" rx="3" fill="#6B7280"/>
  <rect x="158" y="92" width="22" height="14" rx="3" fill="#6B7280"/>
  <rect x="186" y="92" width="84" height="14" rx="3" fill="#6B7280"/>
  <rect x="276" y="92" width="22" height="14" rx="3" fill="#6B7280"/>
  <rect x="304" y="92" width="22" height="14" rx="3" fill="#6B7280"/>
  <rect x="332" y="92" width="34" height="14" rx="3" fill="#6B7280"/>
</svg>
